<?xml version="1.0" standalone="no"?>
<!DOCTYPE svg PUBLIC "-//W3C//DTD SVG 20010904//EN"
 "http://www.w3.org/TR/2001/REC-SVG-20010904/DTD/svg10.dtd">
<svg version="1.0" xmlns="http://www.w3.org/2000/svg"
 width="700.000000pt" height="700.000000pt" viewBox="0 0 700.000000 700.000000"
 preserveAspectRatio="xMidYMid meet">
<metadata>
Created by potrace 1.11, written by Peter Selinger 2001-2013
</metadata>
<g transform="translate(0.000000,700.000000) scale(0.100000,-0.100000)"
fill="#000000" stroke="none">
<path d="M235 6986 c-22 -7 -54 -20 -70 -28 -48 -25 -120 -109 -141 -163 -19
-49 -19 -121 -19 -3295 0 -3180 0 -3246 19 -3295 26 -65 103 -147 169 -176
l52 -24 3255 0 3255 0 52 24 c66 29 143 111 169 176 19 49 19 115 19 3295 0
3180 0 3246 -19 3295 -26 65 -103 147 -169 176 l-52 24 -3240 2 c-2593 1
-3248 -1 -3280 -11z m5685 -1611 l0 -405 -2420 0 -2420 0 0 405 0 405 2420 0
2420 0 0 -405z m0 -1875 l0 -400 -2420 0 -2420 0 0 400 0 400 2420 0 2420 0 0
-400z m0 -1875 l0 -405 -2420 0 -2420 0 0 405 0 405 2420 0 2420 0 0 -405z"/>
</g>
</svg>
